<?xml version="1.0" encoding="UTF-8"?>
<svg version="1.1" xmlns="http://www.w3.org/2000/svg" width="40" height="40">
<path d="M0 0 C4.0743356 0.84881992 5.54405875 2.30225596 8 5.625 C8.3125 8.9375 8.3125 8.9375 8 11.625 C10.475 12.12 10.475 12.12 13 12.625 C13 19.885 13 27.145 13 34.625 C10.51831386 35.86584307 8.83573801 35.75433103 6.0625 35.7578125 C5.08539062 35.75910156 4.10828125 35.76039062 3.1015625 35.76171875 C2.07804687 35.75785156 1.05453125 35.75398438 0 35.75 C-1.02351563 35.75386719 -2.04703125 35.75773437 -3.1015625 35.76171875 C-4.07867187 35.76042969 -5.05578125 35.75914063 -6.0625 35.7578125 C-6.96097656 35.75668457 -7.85945312 35.75555664 -8.78515625 35.75439453 C-11 35.625 -11 35.625 -13 34.625 C-13 27.365 -13 20.105 -13 12.625 C-11.35 12.295 -9.7 11.965 -8 11.625 C-8.103125 10.738125 -8.20625 9.85125 -8.3125 8.9375 C-8 5.625 -8 5.625 -5.875 2.75 C-3 0.625 -3 0.625 0 0 Z M-5 5.625 C-5.16681109 8.70847826 -5.16681109 8.70847826 -5 11.625 C-1.7 11.625 1.6 11.625 5 11.625 C5.16681109 8.70847826 5.16681109 8.70847826 5 5.625 C3.11499729 3.30936913 3.11499729 3.30936913 0 3.375 C-3.11499729 3.30936913 -3.11499729 3.30936913 -5 5.625 Z M-10 14.625 C-10 20.565 -10 26.505 -10 32.625 C-3.4 32.625 3.2 32.625 10 32.625 C10 26.685 10 20.745 10 14.625 C3.4 14.625 -3.2 14.625 -10 14.625 Z " fill="#000000" transform="translate(20,1.375)"/>
</svg>
